<svg width="80" height="80" xmlns="http://www.w3.org/2000/svg" xmlns:xlink="http://www.w3.org/1999/xlink" xmlns:svgjs="http://svgjs.com/svgjs"><svg xmlns="http://www.w3.org/2000/svg" width="80" height="80" viewBox="1.174 1.895 78.652 78.652" fill="#f5c506"><path fill="#F5C506" paint-order="stroke fill markers" fill-rule="evenodd" d="M1.174 22.287l18.78-.713-.125-18.795 8.019 7.669.126 18.795-18.781.712-8.02-7.668zm12.17 11.638l18.78-.713L32 14.418l8.019 7.668.126 18.795-18.781.712-8.019-7.668zm47.827 45.737l-.126-18.794 18.781-.713-8.019-7.669-18.782.713.127 18.795 8.02 7.668zm-12.17-11.638l-.126-18.794 18.78-.714-8.018-7.668-18.782.713.127 18.794 8.02 7.669zm10.433-66.13l.713 18.781 18.794-.126-7.668 8.02-18.795.125-.712-18.78 7.668-8.02zm-11.638 12.17l.713 18.781 18.794-.126-7.668 8.02-18.795.126-.713-18.782 7.669-8.018zM2.059 61.893l18.793-.126.714 18.78 7.668-8.018-.713-18.782-18.794.127-7.668 8.019zm11.638-12.17l18.793-.127.714 18.782 7.669-8.02-.714-18.781-18.794.127-7.668 8.019z"/></svg></svg>